<svg width="18" height="24" fill="none" xmlns="http://www.w3.org/2000/svg"><path d="M17.397 6.585c-.66-3.168-3.233-5.74-6.401-6.4C8.469-.343 5.89.272 3.924 1.871A8.348 8.348 0 00.828 8.375a1.13 1.13 0 002.26 0c0-1.85.825-3.58 2.262-4.75 1.437-1.168 3.327-1.616 5.185-1.228 2.3.48 4.17 2.348 4.649 4.65.666 3.194-1.16 6.288-4.247 7.197-1.711.504-2.862 1.99-2.862 3.695v.1a1.13 1.13 0 002.26 0v-.1c0-.695.5-1.308 1.241-1.527 4.226-1.245 6.729-5.47 5.82-9.827zM9.218 21.74h-.012c-.624 0-1.124.505-1.124 1.13 0 .623.512 1.13 1.136 1.13a1.13 1.13 0 000-2.26z" fill="#00CCC8"/></svg>