<?xml version="1.0" encoding="utf-8"?><svg viewBox="0 0 24 24" xmlns="http://www.w3.org/2000/svg" xmlns:xlink="http://www.w3.org/1999/xlink"><style>:root>svg{display:none}:root>svg:target{display:block}</style><svg viewBox="0 0 8 14" id="angle-right" xmlns="http://www.w3.org/2000/svg"><path d="m1 1 6 6-6 6" stroke-width="2" stroke-linecap="round" stroke-linejoin="round"/></svg><svg viewBox="0 0 16 20" id="apple" xmlns="http://www.w3.org/2000/svg"><path d="M5 6c-3 0-4 3-4 5.5 0 3 2 7.5 4 7.5 1.088-.046 1.679-.5 3-.5 1.312 0 1.5.5 3 .5s4-3 4-5c-.028-.01-2.472-.403-2.5-3-.019-2.17 2.416-2.954 2.5-3-1.023-1.492-2.951-1.963-3.5-2-1.433-.111-2.83 1-3.5 1-.68 0-1.9-1-3-1ZM8 3a2 2 0 0 0 2-2 2 2 0 0 0-2 2" stroke-width="2" stroke-linecap="round" stroke-linejoin="round"/></svg><svg viewBox="0 0 20 20" id="clock" xmlns="http://www.w3.org/2000/svg"><path d="M10 19a9 9 0 1 0 0-18 9 9 0 0 0 0 18Z" stroke-width="2" stroke-linecap="round" stroke-linejoin="round"/><path d="M10 5v5l3 3" stroke-width="2" stroke-linecap="round" stroke-linejoin="round"/></svg><svg viewBox="0 0 24 24" id="gmail" xmlns="http://www.w3.org/2000/svg"><g clip-path="url(#da)"><path d="M17.145 5.99c-1.395-1.243-3.147-1.945-4.967-1.988-1.821-.043-3.601.575-5.046 1.753-1.445 1.177-2.469 2.843-2.902 4.722a8.988 8.988 0 0 0 .519 5.614c.77 1.753 2.078 3.176 3.712 4.032a7.577 7.577 0 0 0 5.27.676c1.778-.419 3.368-1.47 4.508-2.978A8.838 8.838 0 0 0 20 12.5h-7.111" stroke-width="2" stroke-linecap="round" stroke-linejoin="round"/></g><defs><clipPath id="da"><path d="M0 0h24v24H0z"/></clipPath></defs></svg><svg viewBox="0 0 24 24" id="instagram" xmlns="http://www.w3.org/2000/svg"><g clip-path="url(#ea)" stroke-width="2" stroke-linecap="round" stroke-linejoin="round"><path d="M16 4H8a4 4 0 0 0-4 4v8a4 4 0 0 0 4 4h8a4 4 0 0 0 4-4V8a4 4 0 0 0-4-4Z"/><path d="M12 15a3 3 0 1 0 0-6 3 3 0 0 0 0 6ZM16.5 7.5v.001"/></g><defs><clipPath id="ea"><path d="M0 0h24v24H0z"/></clipPath></defs></svg><svg viewBox="0 0 24 24" id="phone" xmlns="http://www.w3.org/2000/svg"><g clip-path="url(#fa)"><path d="M5 4h4l2 5-2.5 1.5a11 11 0 0 0 5 5L15 13l5 2v4a2 2 0 0 1-2 2A16 16 0 0 1 3 6a2 2 0 0 1 2-2" stroke-width="2" stroke-linecap="round" stroke-linejoin="round"/></g><defs><clipPath id="fa"><path d="M0 0h24v24H0z"/></clipPath></defs></svg><svg viewBox="0 0 24 24" id="pin" xmlns="http://www.w3.org/2000/svg"><g clip-path="url(#ga)" stroke-width="2" stroke-linecap="round" stroke-linejoin="round"><path d="M12 14a3 3 0 1 0 0-6 3 3 0 0 0 0 6Z"/><path d="M17.657 16.657 13.414 20.9a2 2 0 0 1-2.827 0l-4.244-4.243a8 8 0 1 1 11.314 0v0Z"/></g><defs><clipPath id="ga"><path d="M0 0h24v24H0z"/></clipPath></defs></svg><svg viewBox="0 0 11 11" id="star" xmlns="http://www.w3.org/2000/svg"><path d="m5.3 9.231-3.24 1.704.619-3.609L.054 4.771l3.622-.525L5.296.964l1.62 3.282 3.623.525-2.625 2.556.619 3.608L5.3 9.23Z"/></svg><svg viewBox="0 0 24 24" id="telegram" xmlns="http://www.w3.org/2000/svg"><g clip-path="url(#ia)"><path d="m15 10-4 4 6 6 4-16-18 7 4 2 2 6 3-4" stroke-width="2" stroke-linecap="round" stroke-linejoin="round"/></g><defs><clipPath id="ia"><path d="M0 0h24v24H0z"/></clipPath></defs></svg><svg viewBox="0 0 24 24" id="vk" xmlns="http://www.w3.org/2000/svg"><g clip-path="url(#ja)" stroke-width="2" stroke-linecap="round" stroke-linejoin="round"><path d="M9.556 4H12v15C6.5 17.75 2.222 10.875 1 4M22 4c-1.25 2.333-3.75 5.833-6.25 7H12M22 19c-1.2-2.667-3.6-6.667-6-8"/></g><defs><clipPath id="ja"><path d="M0 0h24v24H0z"/></clipPath></defs></svg></svg>