<svg width="44" height="38" fill="none" xmlns="http://www.w3.org/2000/svg"><path d="M9.405 15.987H5.202A4.202 4.202 0 001 20.19v12.607A4.202 4.202 0 005.202 37h4.203a4.202 4.202 0 004.202-4.203V20.19a4.202 4.202 0 00-4.202-4.203z" stroke="#00CCC8" stroke-width="2" stroke-linecap="round" stroke-linejoin="round"/><path d="M13.607 32.798A4.202 4.202 0 0017.81 37h15.784a4.202 4.202 0 004.026-2.996l5.043-12.608c.378-1.273.559-2.647-.235-3.715-.79-1.067-2.278-1.693-3.606-1.693h-8.405V5.62a4.623 4.623 0 00-8.468-2.563l-8.342 12.93v16.81z" stroke="#00CCC8" stroke-width="2" stroke-linecap="round" stroke-linejoin="round"/></svg>