<svg width="42" height="43" fill="none" xmlns="http://www.w3.org/2000/svg"><path d="M14.34 26H5c-2.2 0-4 1.8-4 4v12h13.34V26z" stroke="#00CCC8" stroke-width="2" stroke-miterlimit="10" stroke-linecap="round" stroke-linejoin="round"/><path d="M23.66 18h-5.34c-2.2 0-4 1.8-4 4v20h13.34V22c0-2.2-1.78-4-4-4zM37 32h-9.34v10H41v-6c0-2.2-1.8-4-4-4z" stroke="#00CCC8" stroke-width="2" stroke-miterlimit="10" stroke-linecap="round" stroke-linejoin="round"/><path d="M22.04 2.14l1.06 2.12c.14.3.52.58.84.62l1.92.32c1.22.2 1.52 1.1.64 1.96L25 8.66c-.26.26-.4.74-.32 1.08l.42 1.84c.34 1.46-.44 2.02-1.72 1.26l-1.8-1.06c-.32-.2-.86-.2-1.18 0l-1.8 1.06c-1.28.76-2.06.2-1.72-1.26l.42-1.84c.08-.34-.06-.84-.32-1.08L15.5 7.18c-.88-.88-.6-1.76.64-1.96l1.92-.32c.32-.06.7-.34.84-.62l1.06-2.12c.58-1.16 1.5-1.16 2.08-.02z" stroke="#00CCC8" stroke-width="2" stroke-linecap="round" stroke-linejoin="round"/></svg>