<svg width="176" height="55" fill="none" xmlns="http://www.w3.org/2000/svg"><g clip-path="url(#clip0_112_1414)"><mask id="a" style="mask-type:luminance" maskUnits="userSpaceOnUse" x="0" y="1" width="33" height="52"><path d="M3.249 20.455c.86-5.142 2.808-8.978 5.444-11.614.776-2.279 1.926-4.59 3.451-6.928.906 1.062 1.714 2.418 2.421 4.071a6.276 6.276 0 012.418.437c1.048-1.331 2.295-2.405 3.311-3.713.63 2.406.393 4.542-.711 6.406.753 1.824.87 3.28.35 4.368-.619 1.364 0 3.066 1.861 5.11-1.468.858-3.162 1.093-5.088.83-2.493-.354-4.734-2.117-6.722-5.284-3.193 4.009-4.347 8.329-3.46 12.959.05-.576.187-1.073.414-1.493.833 4.184 2.32 7.634 4.459 10.35-.17-1.462-.052-2.99.358-4.582.278.678.616 1.233 1.012 1.66-.196-1.894.075-3.323.81-4.287 1.37-1.868 2.168-4.827 2.397-8.879.53.13 1.325.262 2.385.397 1.123 2.145 2.736 3.648 4.838 4.51 6.541 2.682 9.207 13.014 9.365 19.304-.315 4.641-1.699 8.285-6.985 7.87a4.29 4.29 0 00-1.365-.088c-1.504.08-2.858.004-4.06-.228-1.59-.312-6.445.82-8.487 1.155C5.348 53.432.59 49.23 0 42.96c3.826 5.355 9.056-1.887 17.705 1.82 2.15 1.023 4.286 1.601 6.404 1.731-2.362-.598-4.345-1.282-5.95-2.052-2.934-1.362-5.586-1.872-7.958-1.531.233-4.361-2.085-7.17-4.386-10.543-2.633-3.663-3.49-7.64-2.568-11.93" fill="#fff"/></mask><g mask="url(#a)"><path d="M32.564 1.91H0v51.521h32.564V1.911z" fill="url(#paint0_linear_112_1414)"/></g><mask id="b" style="mask-type:luminance" maskUnits="userSpaceOnUse" x="0" y="1" width="33" height="52"><path d="M3.249 20.455c.86-5.142 2.808-8.978 5.444-11.614.776-2.279 1.926-4.59 3.451-6.928.906 1.062 1.714 2.418 2.421 4.071a6.276 6.276 0 012.418.437c1.048-1.331 2.295-2.405 3.311-3.713.63 2.406.393 4.542-.711 6.406.753 1.824.87 3.28.35 4.368-.619 1.364 0 3.066 1.861 5.11-1.468.858-3.162 1.093-5.088.83-2.493-.354-4.734-2.117-6.722-5.284-3.193 4.009-4.347 8.329-3.46 12.959.05-.576.187-1.073.414-1.493.833 4.184 2.32 7.634 4.459 10.35-.17-1.462-.052-2.99.358-4.582.278.678.616 1.233 1.012 1.66-.196-1.894.075-3.323.81-4.287 1.37-1.868 2.168-4.827 2.397-8.879.53.13 1.325.262 2.385.397 1.123 2.145 2.736 3.648 4.838 4.51 6.541 2.682 9.207 13.014 9.365 19.304-.315 4.641-1.699 8.285-6.985 7.87a4.29 4.29 0 00-1.365-.088c-1.504.08-2.858.004-4.06-.228-1.59-.312-6.445.82-8.487 1.155C5.348 53.432.59 49.23 0 42.96c3.826 5.355 9.056-1.887 17.705 1.82 2.15 1.023 4.286 1.601 6.404 1.731-2.362-.598-4.345-1.282-5.95-2.052-2.934-1.362-5.586-1.872-7.958-1.531.233-4.361-2.085-7.17-4.386-10.543-2.633-3.663-3.49-7.64-2.568-11.93" fill="#fff"/></mask><g mask="url(#b)"><mask id="c" style="mask-type:luminance" maskUnits="userSpaceOnUse" x="16" y="2" width="6" height="5"><path d="M20.418 2.312c.861.97.934 1.857.215 2.659-.112-.395-.263-.665-.455-.808-.774.15-1.84.904-3.196 2.256.822-1.344 1.968-2.713 3.436-4.107z" fill="#fff"/></mask><g mask="url(#c)"><path d="M21.352 2.312h-4.37V6.42h4.37V2.312z" fill="url(#paint1_linear_112_1414)"/></g><mask id="d" style="mask-type:luminance" maskUnits="userSpaceOnUse" x="13" y="45" width="12" height="8"><path d="M13.62 52.441c6.473.085 10.223-.04 11.17-.6-2.155-.944-3.623-2.959-4.405-6.045l-.318-.102c-3.561 1.981-5.71 4.231-6.448 6.75" fill="#fff"/></mask><g mask="url(#d)"><path d="M24.79 45.692H13.62v6.836h11.17v-6.836z" fill="url(#paint2_linear_112_1414)"/></g><path fill-rule="evenodd" clip-rule="evenodd" d="M6.703 44.568l6.387 7.954C5.5 56.618 1.138 53.43 0 42.96l6.703 1.608z" fill="#00D6D6"/><mask id="e" style="mask-type:luminance" maskUnits="userSpaceOnUse" x="8" y="0" width="7" height="9"><path d="M12.72.751C10.306 3.508 8.964 6.204 8.693 8.84c1.078-2.345 2.229-4.203 3.455-5.576.701.388 1.506 1.294 2.417 2.72-.12-2.639-.734-4.383-1.843-5.232" fill="#fff"/></mask><g mask="url(#e)"><path d="M14.563.751h-5.87V8.84h5.87V.75z" fill="url(#paint3_linear_112_1414)"/></g><mask id="f" style="mask-type:luminance" maskUnits="userSpaceOnUse" x="9" y="14" width="14" height="7"><path d="M17.162 20.094c6.034-.435 7.212-1.394 3.537-2.874-1.487-1.139-3.213-1.651-5.173-1.536-1.963.237-3.809-.279-5.54-1.548 2.126 4.66 4.519 6.647 7.178 5.958" fill="#fff"/></mask><g mask="url(#f)"><path d="M24.374 14.136H9.984v6.647h14.39v-6.647z" fill="url(#paint4_linear_112_1414)"/></g><mask id="g" style="mask-type:luminance" maskUnits="userSpaceOnUse" x="20" y="17" width="2" height="3"><path d="M20.235 19.248c.665-.205 1.184-.425 1.56-.659l-.8-.956c-.274.184-.562.31-.867.38.202.377.238.79.107 1.237" fill="#fff"/></mask><g mask="url(#g)"><path d="M21.794 17.633h-1.666v1.617h1.666v-1.617z" fill="url(#paint5_linear_112_1414)"/></g><mask id="h" style="mask-type:luminance" maskUnits="userSpaceOnUse" x="3" y="14" width="19" height="25"><path d="M9.985 14.136c.661 4.664 2.657 6.574 5.99 5.73.362 7.834 2.085 14.129 5.17 18.89-7.538.603-19.535-6.437-17.337-15.246.974-3.233 3.033-6.357 6.177-9.374z" fill="#fff"/></mask><g mask="url(#h)"><path d="M21.145 14.136H1.609v25.223h19.536V14.136z" fill="url(#paint6_linear_112_1414)"/></g><mask id="i" style="mask-type:luminance" maskUnits="userSpaceOnUse" x="6" y="43" width="9" height="10"><path d="M13.175 52.528c.49.469.637.44.445-.087-1.436-3.72-1.18-6.6.766-8.636-1.927-.919-4.534-.645-7.816.82-.061 2.376 2.14 5.01 6.605 7.903z" fill="#fff"/></mask><g mask="url(#i)"><path d="M14.384 42.886H6.51v10.109h7.875V42.887z" fill="url(#paint7_linear_112_1414)"/></g><mask id="j" style="mask-type:luminance" maskUnits="userSpaceOnUse" x="12" y="43" width="9" height="10"><path d="M14.386 43.804c-2.364 1.785-2.62 4.664-.766 8.635.705-2.09 2.854-4.34 6.447-6.749-1.039-1.21-2.932-1.84-5.68-1.886z" fill="#fff"/></mask><g mask="url(#j)"><path d="M20.065 43.804h-8.3v8.635h8.3v-8.635z" fill="url(#paint8_linear_112_1414)"/></g><mask id="k" style="mask-type:luminance" maskUnits="userSpaceOnUse" x="20" y="45" width="12" height="8"><path d="M24.79 51.84c5.193 1.94 7.421 1.064 6.684-2.626-1.305.435-3.724-.465-7.258-2.7-2.008-.848-3.285-1.087-3.832-.718.301 3.864 1.769 5.88 4.406 6.044z" fill="#fff"/></mask><g mask="url(#k)"><path d="M32.211 45.427H20.386v8.353H32.21v-8.353z" fill="url(#paint9_linear_112_1414)"/></g><mask id="l" style="mask-type:luminance" maskUnits="userSpaceOnUse" x="5" y="5" width="15" height="9"><path d="M8.694 8.839c-1.121 1.09-2.153 2.518-3.098 4.282 4.6-5.269 9.263-6.606 13.985-4.011-.57-1.36-1.435-2.256-2.6-2.693a6.276 6.276 0 00-2.417-.437c-2.49-.013-4.446.94-5.87 2.857" fill="#fff"/></mask><g mask="url(#l)"><path d="M19.583 5.969H5.598v7.154h13.985V5.969z" fill="url(#paint10_linear_112_1414)"/></g></g></g><path d="M163.178 43.73h.995v3.521c0 .152-.002.318-.005.5a14.96 14.96 0 01-.018.532l-.018.463c-.006.133-.012.23-.018.29h.031l3.38-5.306h1.268v6.642h-.986V46.88c0-.164.003-.341.009-.532a29.313 29.313 0 01.05-1.026l.018-.291h-.041l-3.389 5.342h-1.276V43.73zm4.892-2.121c-.03.312-.115.581-.254.808a1.314 1.314 0 01-.622.518c-.279.122-.645.182-1.1.182-.469 0-.84-.057-1.113-.172a1.17 1.17 0 01-.59-.514 2.063 2.063 0 01-.218-.822h.972c.03.336.118.563.263.681.146.115.38.173.704.173.279 0 .502-.062.668-.186.17-.124.271-.347.305-.668h.985zm-12.447 2.121h.995v3.521c0 .152-.002.318-.005.5s-.009.359-.018.532l-.018.463c-.006.133-.012.23-.018.29h.032l3.38-5.306h1.267v6.642h-.986V46.88c0-.164.003-.341.009-.532a29.267 29.267 0 01.05-1.026l.019-.291h-.041l-3.389 5.342h-1.277V43.73zm-2.117 0v5.71h.849v2.768h-1.049v-1.836h-4.388v1.836h-1.05V49.44h.514c.199-.367.389-.766.567-1.2a15.759 15.759 0 001.104-4.51h3.453zm-1.086.932h-1.467c-.037.348-.099.73-.186 1.145-.085.411-.191.832-.318 1.262-.128.43-.27.848-.427 1.254-.155.406-.318.779-.491 1.118h2.889v-4.78zm-4.788-.932l-2.113 4.757a6.411 6.411 0 01-.581 1.077c-.2.293-.447.517-.741.672-.294.151-.674.227-1.14.227a3.6 3.6 0 01-.977-.136v-.99a2.267 2.267 0 00.918.172c.221 0 .404-.035.549-.104a.963.963 0 00.373-.31 2.36 2.36 0 00.277-.508l-2.43-4.857h1.167l1.567 3.294c.025.052.055.118.091.2.037.079.071.16.105.245.036.082.066.158.091.227h.041c.021-.06.046-.131.077-.213l.1-.259.095-.232 1.39-3.261h1.141zm-8.231 6.642h-1.095v-5.715h-1.945v-.926h4.979v.926h-1.939v5.715zm-5.556-5.81c-.318 0-.603.057-.855.172a1.72 1.72 0 00-.631.5 2.252 2.252 0 00-.395.786 3.63 3.63 0 00-.137 1.036c0 .515.073.958.219 1.331.145.37.366.654.663.854.297.197.672.295 1.126.295.282 0 .556-.027.823-.081a7.43 7.43 0 00.827-.223v.927c-.27.106-.543.183-.818.231a5.562 5.562 0 01-.954.073c-.679 0-1.242-.14-1.69-.422a2.58 2.58 0 01-1-1.19c-.218-.512-.327-1.112-.327-1.8 0-.502.07-.963.209-1.38.14-.419.343-.78.609-1.082.267-.306.595-.54.986-.704.394-.167.843-.25 1.349-.25.333 0 .66.038.981.114.324.072.624.177.9.313l-.382.9a5.604 5.604 0 00-.722-.282 2.598 2.598 0 00-.781-.118zm-6.514 5.81h-1.24l-1.672-2.721-1.681 2.721h-1.168l2.208-3.443-2.058-3.199h1.204l1.545 2.517 1.535-2.517h1.168l-2.067 3.23 2.226 3.412zm-13.248 0V43.73h1.09v2.685h.759c.609 0 1.099.085 1.472.255.375.166.65.396.822.69.173.294.259.629.259 1.004 0 .624-.203 1.115-.609 1.472-.402.358-1.04.536-1.912.536h-1.881zm1.09-.908h.732c.481 0 .846-.087 1.095-.26.248-.175.372-.455.372-.84 0-.27-.059-.478-.177-.627-.115-.148-.289-.253-.523-.313a3.456 3.456 0 00-.858-.091h-.641v2.13zm4.221.908V43.73h1.09v6.642h-1.09zm-11.629-6.642h1.976c.857 0 1.504.125 1.94.373.436.248.654.677.654 1.286 0 .254-.046.484-.136.69a1.273 1.273 0 01-.387.504 1.44 1.44 0 01-.627.264v.045c.258.046.487.126.686.241.203.115.362.28.477.495.119.215.178.494.178.836 0 .406-.097.751-.291 1.036a1.781 1.781 0 01-.822.65c-.355.148-.776.222-1.263.222h-2.385V43.73zm1.09 2.74h1.045c.494 0 .836-.08 1.027-.24.19-.161.286-.396.286-.705 0-.315-.114-.542-.341-.681-.224-.14-.581-.21-1.072-.21h-.945v1.836zm0 .881v2.108h1.149c.509 0 .867-.098 1.072-.295.206-.197.309-.464.309-.8 0-.206-.047-.384-.14-.536-.091-.151-.241-.268-.45-.35-.209-.084-.491-.127-.845-.127h-1.095zm-2.713 3.021h-3.761V43.73h3.761v.918h-2.671v1.804h2.503v.913h-2.503v2.085h2.671v.922zm-6.905 0h-1.094v-5.715h-1.945v-.926h4.979v.926h-1.94v5.715zM95.68 43.73v.927h-2.875v5.715h-1.09V43.73h3.966zm-5.577 3.312c0 .512-.066.978-.196 1.4a2.99 2.99 0 01-.577 1.08c-.257.3-.58.532-.968.696-.387.163-.841.245-1.362.245-.53 0-.99-.082-1.381-.245a2.548 2.548 0 01-.968-.7 3.026 3.026 0 01-.572-1.086 4.825 4.825 0 01-.191-1.399c0-.684.112-1.28.336-1.79a2.59 2.59 0 011.031-1.19c.464-.285 1.048-.427 1.754-.427.69 0 1.264.14 1.722.422.457.282.799.679 1.026 1.19.23.51.346 1.11.346 1.804zm-5.07 0c0 .512.07.956.209 1.331.139.373.352.66.64.864.29.2.663.3 1.118.3.457 0 .83-.1 1.117-.3.288-.203.5-.491.636-.864.136-.375.205-.819.205-1.33 0-.78-.156-1.388-.468-1.827-.31-.442-.803-.663-1.481-.663-.455 0-.829.1-1.122.3-.291.2-.506.486-.645.858-.14.37-.21.813-.21 1.331zm-2.772 3.33h-1.085v-2.998h-3.062v2.998h-1.09V43.73h1.09v2.717h3.062V43.73h1.085v6.642zm-13.951 0V43.73h1.09v2.685h.908c.612 0 1.109.085 1.49.255.382.166.66.396.837.69a1.9 1.9 0 01.267 1.004c0 .624-.207 1.115-.622 1.472-.412.358-1.055.536-1.93.536h-2.04zm1.09-.908h.881c.488 0 .862-.087 1.122-.26.26-.175.391-.455.391-.84 0-.27-.064-.478-.19-.627-.128-.151-.313-.257-.555-.318a3.711 3.711 0 00-.886-.09H69.4v2.135zm-4.234.908h-1.095v-5.715h-1.944v-.926h4.979v.926h-1.94v5.715zm-3.925 0H57.48V43.73h3.761v.918H58.57v1.804h2.503v.913H58.57v2.085h2.671v.922zm-7.014-5.81a2.03 2.03 0 00-.854.172 1.716 1.716 0 00-.631.5 2.256 2.256 0 00-.395.786 3.63 3.63 0 00-.137 1.036c0 .515.073.958.218 1.331.146.37.367.654.664.854.296.197.672.295 1.126.295.282 0 .556-.027.823-.081a7.38 7.38 0 00.826-.223v.927c-.27.106-.542.183-.817.231a5.556 5.556 0 01-.954.073c-.679 0-1.242-.14-1.69-.422a2.578 2.578 0 01-1-1.19c-.218-.512-.327-1.112-.327-1.8 0-.502.07-.963.21-1.38.138-.419.341-.78.608-1.082.266-.306.595-.54.986-.704.393-.167.843-.25 1.349-.25.333 0 .66.038.981.114.324.072.624.177.9.313l-.382.9a5.602 5.602 0 00-.722-.282 2.6 2.6 0 00-.782-.118z" fill="#4B4B4B"/><g clip-path="url(#clip1_112_1414)" fill="#00CCC8"><path d="M171.188 15.993c0-1.465-1.136-2.196-3.406-2.196h-2.672v4.565h2.702c2.25 0 3.376-.787 3.376-2.365m-.648-7.918c0-1.295-1.022-1.943-3.067-1.943h-2.363v4.113h2.589c.9 0 1.6-.19 2.098-.565.498-.375.747-.91.747-1.605h-.004zm5.46 8.366c0 1.033-.212 1.94-.634 2.718a4.553 4.553 0 01-1.745 1.817 8.776 8.776 0 01-2.42.957c-.873.206-1.806.309-2.801.309h-7.937V2.302h7.937c.843 0 1.636.08 2.376.239.74.16 1.46.422 2.154.787a4.05 4.05 0 011.647 1.605c.404.704.604 1.535.604 2.492 0 1.07-.292 1.973-.873 2.704-.581.731-1.378 1.27-2.393 1.605v.056c1.201.207 2.18.718 2.94 1.535.76.818 1.139 1.854 1.139 3.114l.006.006zm-28.578-1.973l-2.476-6.844-2.532 6.844h5.008zm8.219 7.774h-5.348l-1.546-3.917h-7.711l-1.464 3.917h-5.234l8.354-19.944h4.671l8.274 19.944h.004zm-24.274 0h-12.553V2.302h4.84V18.05h7.71v4.196h.003zm-27.834 0h-6.277l-7.402-9.183h-.056v9.183H85.07V2.302h4.727v8.113h.083l7.123-8.113h6.021l-8.584 9.183 9.092 10.761zm-31.506-7.774l-2.476-6.844-2.533 6.844h5.009zm8.218 7.774h-5.347l-1.547-3.917h-7.71l-1.464 3.917h-5.234l8.354-19.944h4.67l8.275 19.944h.003zm-24.273 0H43.42V2.302h4.84V18.05h7.71v4.196h.003zm38.745 6.95l-.73.711a1.63 1.63 0 00-.611-.501 1.845 1.845 0 00-.83-.19c-.375 0-.71.103-1.003.31-.292.205-.438.501-.438.893 0 .196.033.359.103.495a.91.91 0 00.355.356c.166.1.316.176.448.229.133.053.336.123.605.212.272.084.478.153.62.203.143.053.329.14.558.266.229.126.405.256.528.392a1.971 1.971 0 01.461 1.302c0 .725-.249 1.28-.747 1.665s-1.102.578-1.812.578c-.481 0-.936-.093-1.371-.276a2.62 2.62 0 01-1.059-.8l.803-.678c.173.259.409.465.704.628.296.16.61.239.946.239a1.7 1.7 0 001.032-.33c.3-.218.448-.53.448-.933a1.02 1.02 0 00-.103-.468 1.34 1.34 0 00-.228-.336 1.428 1.428 0 00-.409-.255 5.58 5.58 0 00-.454-.193 10.67 10.67 0 00-.558-.176 6.56 6.56 0 01-.704-.266 3.096 3.096 0 01-.594-.366 1.465 1.465 0 01-.465-.6 2.155 2.155 0 01-.156-.848c0-.465.13-.864.385-1.196.26-.332.571-.565.946-.705a3.417 3.417 0 011.205-.209c.432 0 .827.077 1.205.23.379.152.684.358.913.617m-9.486-.657v6.475h3.299v.92h-4.332V28.54h1.033zm-3.612 0v7.395H80.58V28.54h1.032zm-6.439 1.202l-1.387 3.469h2.765l-1.378-3.469zm-1.752 4.376l-.74 1.817h-1.149l3.203-7.395h.94l3.172 7.395H77.68l-.75-1.817h-3.508zm-8.537-5.578l3.86 5.913h.02V28.54h1.032v7.395h-1.304l-3.904-6.037h-.02v6.037h-1.032V28.54h1.348zm39.588 5.767l-1.753-1.837c-.793.335-1.188.827-1.188 1.482 0 .375.136.684.411.923.276.24.598.36.966.36.628 0 1.149-.31 1.567-.931m-.239-4.2a.918.918 0 00-.266-.667.904.904 0 00-.683-.273.992.992 0 00-.711.273c-.189.179-.282.418-.282.71 0 .426.243.854.731 1.286.806-.355 1.211-.797 1.211-1.325v-.004zm2.911 1.88l-1.421 2.204 1.69 1.744h-1.368l-.919-.97c-.584.737-1.331 1.106-2.244 1.106-.674 0-1.245-.186-1.706-.558-.461-.372-.694-.887-.694-1.542 0-.92.555-1.634 1.66-2.143-.564-.591-.846-1.156-.846-1.69 0-.566.192-1.004.574-1.316.381-.313.849-.469 1.397-.469s.996.153 1.361.459c.365.305.548.73.548 1.276 0 .8-.528 1.451-1.587 1.953l1.471 1.515.929-1.568h1.155zm46.041.755v3.196h-1.042v-3.196l-2.765-4.2h1.275l2.044 3.343 2.055-3.342h1.201l-2.765 4.2h-.003zm-6.887-3.29v6.49h-1.033v-6.49h-2.369v-.91h5.772v.91h-2.37zm-5.855 5.825c-.495.568-1.205.85-2.128.85s-1.636-.282-2.127-.85c-.495-.568-.741-1.26-.741-2.073v-4.658h1.033v4.595c0 .578.149 1.066.444 1.462.296.395.76.594 1.394.594.634 0 1.099-.199 1.394-.594.296-.396.445-.884.445-1.462v-4.595h1.033V33.2c0 .814-.246 1.505-.741 2.073h-.006zm-10.217-5.532l-1.387 3.469h2.765l-1.378-3.469zm-1.752 4.376l-.74 1.817h-1.149l3.203-7.395h.939l3.174 7.395h-1.169l-.75-1.817h-3.508zm-7.067-1.568v2.465h3.86v.92h-4.895V28.54h4.736v.91h-3.704v2.216h3.485v.887h-3.485l.003-.003zm-7.481-.01v2.518h1.294c.329 0 .621-.033.876-.103.259-.07.482-.203.674-.402.193-.2.286-.455.286-.767 0-.828-.581-1.243-1.743-1.243h-1.387v-.003zm0-3.133v2.256h1.347c.425 0 .774-.097 1.043-.286.272-.193.408-.479.408-.86 0-.738-.538-1.107-1.617-1.107h-1.178l-.003-.003zm-1.033 6.528V28.54h2.546c.641 0 1.185.15 1.64.448.451.3.677.774.677 1.422 0 .395-.116.738-.348 1.023a1.746 1.746 0 01-.946.585v.02c.488.056.883.243 1.185.565.302.319.454.73.454 1.232 0 .681-.259 1.203-.776 1.562-.518.359-1.185.538-1.999.538h-2.433z"/></g><defs><linearGradient id="paint0_linear_112_1414" x1="-.187" y1="27.869" x2="32.36" y2="27.467" gradientUnits="userSpaceOnUse"><stop stop-color="#00C1BF"/><stop offset=".07" stop-color="#00BBBA"/><stop offset=".13" stop-color="#00B2B2"/><stop offset=".33" stop-color="#00C4C2"/><stop offset=".66" stop-color="#00EFEA"/><stop offset="1" stop-color="#00F7F2"/></linearGradient><linearGradient id="paint1_linear_112_1414" x1="16.982" y1="4.365" x2="21.123" y2="4.365" gradientUnits="userSpaceOnUse"><stop stop-color="#00C4C4"/><stop offset=".32" stop-color="#00C8C7"/><stop offset=".66" stop-color="#00D4D3"/><stop offset="1" stop-color="#00E9E5"/></linearGradient><linearGradient id="paint2_linear_112_1414" x1="19.737" y1="45.641" x2="18.63" y2="53.025" gradientUnits="userSpaceOnUse"><stop stop-color="#00B2B2"/><stop offset="1" stop-color="#00F2ED"/></linearGradient><linearGradient id="paint3_linear_112_1414" x1="8.693" y1="4.796" x2="14.565" y2="4.796" gradientUnits="userSpaceOnUse"><stop stop-color="#00B7B7"/><stop offset="1" stop-color="#00E9E5"/></linearGradient><linearGradient id="paint4_linear_112_1414" x1="9.984" y1="17.459" x2="22.788" y2="17.459" gradientUnits="userSpaceOnUse"><stop stop-color="#00E7E6"/><stop offset=".42" stop-color="#00EFED"/><stop offset="1" stop-color="#00F6F4"/></linearGradient><linearGradient id="paint5_linear_112_1414" x1="20.128" y1="18.441" x2="21.794" y2="18.441" gradientUnits="userSpaceOnUse"><stop stop-color="#00DBD8"/><stop offset="1" stop-color="#00AFAF"/></linearGradient><linearGradient id="paint6_linear_112_1414" x1="3.542" y1="26.767" x2="17.002" y2="26.733" gradientUnits="userSpaceOnUse"><stop stop-color="#00F6F1"/><stop offset=".43" stop-color="#00F2EE"/><stop offset=".77" stop-color="#00C8C6"/><stop offset="1" stop-color="#00C5C3"/></linearGradient><linearGradient id="paint7_linear_112_1414" x1="9.999" y1="42.945" x2="10.907" y2="53.304" gradientUnits="userSpaceOnUse"><stop stop-color="#00B2B3"/><stop offset=".26" stop-color="#00BDBC"/><stop offset="1" stop-color="#00EFEB"/></linearGradient><linearGradient id="paint8_linear_112_1414" x1="14.685" y1="51.98" x2="17.176" y2="43.976" gradientUnits="userSpaceOnUse"><stop stop-color="#00B4B3"/><stop offset=".32" stop-color="#00D2CE"/><stop offset="1" stop-color="#00F5F0"/></linearGradient><linearGradient id="paint9_linear_112_1414" x1="20.386" y1="49.603" x2="31.613" y2="49.603" gradientUnits="userSpaceOnUse"><stop stop-color="#00F4EF"/><stop offset="1" stop-color="#00B7B7"/></linearGradient><linearGradient id="paint10_linear_112_1414" x1="5.598" y1="9.545" x2="19.583" y2="9.545" gradientUnits="userSpaceOnUse"><stop stop-color="#38B7B6"/><stop offset=".38" stop-color="#7EC8C6"/><stop offset=".6" stop-color="#77C6C6"/><stop offset="1" stop-color="#00ADAE"/></linearGradient><clipPath id="clip0_112_1414"><path fill="#fff" transform="translate(0 .751)" d="M0 0h32.564v53.498H0z"/></clipPath><clipPath id="clip1_112_1414"><path fill="#fff" transform="translate(43.419 2.302)" d="M0 0h132.581v33.822H0z"/></clipPath></defs></svg>